<svg id="Layer_1" data-name="Layer 1" xmlns="http://www.w3.org/2000/svg" viewBox="0 0 48 48"><defs><style>.cls-1{fill:#53bb0f;}</style></defs><title>numericable</title><path class="cls-1" d="M10.9,21.77a1.36,1.36,0,0,0-1.07-.53,1.47,1.47,0,0,0-1.54,1.59v2.51H9V22.86A.85.85,0,0,1,9.83,22c.42,0,.68.35.68.88v2.45h.8V22.86A.85.85,0,0,1,12.1,22c.42,0,.69.35.69.88v2.45h.78V22.86a1.58,1.58,0,0,0-1.47-1.62A1.49,1.49,0,0,0,10.9,21.77ZM0,26.43l.91-.59v-3c0-1.06,1.66-1.06,1.66-.12s0,2.57,0,2.57h.91s0-1.41,0-2.42a1.48,1.48,0,0,0-1.62-1.65,1.46,1.46,0,0,0-1,.41V21.3H0Zm4.13-5.07v2.36a1.66,1.66,0,0,0,1.77,1.71,1.65,1.65,0,0,0,1.68-1.62V21.33H6.82v2.36A.92.92,0,0,1,5,23.81V21.33H4.16Zm11.21,1.56h2A1.21,1.21,0,0,0,16.2,22a1.36,1.36,0,0,0-1.33,1.32,1.32,1.32,0,0,0,1.27,1.36c.56,0,1.12-.65,1.12-.65l.62.5a2.14,2.14,0,0,1-1.68.92,2.11,2.11,0,1,1,2.06-2.3,3.52,3.52,0,0,1,0,.44H15.34Zm3.36,2.45v-4h.77v.38s.25-.47,1.27-.47V22s-1.21-.21-1.21,1.27v2.06Zm2.72-4h.79v4h-.79Zm.38-.39a.46.46,0,0,0,.47-.45.47.47,0,0,0-.94,0A.46.46,0,0,0,21.83,20.94Zm4.22,3.66H25.4a1.3,1.3,0,0,1-1.27-1.24,1.28,1.28,0,0,1,1.15-1.26h.77v-.77h-.88a2,2,0,0,0-1.86,2,1.92,1.92,0,0,0,1.86,2h.88Zm3.63.77V23c0-.59-.59-1-1.3-1a1.33,1.33,0,0,0-1.24,1.35,1.3,1.3,0,0,0,1.21,1.3,1.45,1.45,0,0,0,1.06-.56v.95a1.8,1.8,0,0,1-1.09.38,1.9,1.9,0,0,1-1.59-.86,2.4,2.4,0,0,1-.38-1.32,2,2,0,0,1,2.09-2,1.84,1.84,0,0,1,2,1.74v2.39Zm2.15-5.84v3.78a1.42,1.42,0,0,0,1.27,1.35,1.33,1.33,0,0,0,1.24-1.35A1.3,1.3,0,0,0,33.13,22a1.45,1.45,0,0,0-1.06.56v-.95a1.8,1.8,0,0,1,1.09-.38,1.9,1.9,0,0,1,1.59.86,2.41,2.41,0,0,1,.39,1.32,2,2,0,0,1-2.1,2c-1.77,0-2-1.83-2-2.12V19.53Zm4,0h.79v5.81h-.79Zm2.65,3.39h2A1.21,1.21,0,0,0,39.33,22,1.36,1.36,0,0,0,38,23.33a1.32,1.32,0,0,0,1.27,1.36c.56,0,1.12-.65,1.12-.65l.62.5a2.14,2.14,0,0,1-1.68.92,2.11,2.11,0,1,1,2.06-2.3,3.52,3.52,0,0,1,0,.44H38.47Z"/><path class="cls-1" d="M33.21,28.35a42.82,42.82,0,0,0,5.1-.45,18.22,18.22,0,0,0,7.4-2.66h.08a.17.17,0,0,0,.17-.17.17.17,0,0,0-.17-.18.18.18,0,0,0-.18.18.19.19,0,0,0,0,.07,18.13,18.13,0,0,1-7.33,2.63,41.76,41.76,0,0,1-5,.45c4.67-.39,8.39-1.54,10.46-3.41l.08,0a.18.18,0,0,0,.18-.18.18.18,0,0,0-.36,0,.14.14,0,0,0,0,.07c-2.42,2.18-7.12,3.39-13,3.52l-1.44,0c-3.4,0-10-1.12-14.13-1.77s-9.68-.71-12.22-.12S-.16,27.73.12,28c.47.44.41-.42,4-1.24s8.59-.56,13.51.26a83.54,83.54,0,0,0,11.72,1.42h1a62.87,62.87,0,0,0,8.5-.21,29.27,29.27,0,0,0,8.91-2.28.17.17,0,0,0,.12,0,.18.18,0,0,0,.18-.18.17.17,0,0,0-.18-.17.17.17,0,0,0-.17.17v0a29,29,0,0,1-8.87,2.27,49.67,49.67,0,0,1-5.57.25Z"/></svg>